<?xml version="1.0" encoding="UTF-8" standalone="no"?>
<!DOCTYPE svg PUBLIC "-//W3C//DTD SVG 20010904//EN" "http://www.w3.org/TR/2001/REC-SVG-20010904/DTD/svg10.dtd">
<!-- Created with Sodipodi ("http://www.sodipodi.com/") -->
<svg xmlns:dc="http://purl.org/dc/elements/1.1/" xmlns:cc="http://web.resource.org/cc/" xmlns:rdf="http://www.w3.org/1999/02/22-rdf-syntax-ns#" xmlns:svg="http://www.w3.org/2000/svg" xmlns="http://www.w3.org/2000/svg" xmlns:sodipodi="http://sodipodi.sourceforge.net/DTD/sodipodi-0.dtd" xmlns:inkscape="http://www.inkscape.org/namespaces/inkscape" xml:space="preserve" width="112mm" height="132mm" style="shape-rendering:geometricPrecision; text-rendering:geometricPrecision; image-rendering:optimizeQuality; fill-rule:evenodd" viewBox="0 0 8268 11692" id="svg2" sodipodi:version="0.34" inkscape:version="0.43" sodipodi:docname="D:\Dokumenty\Wikipedie\images\svg\Alto clef.svg" xmlns:xlink="http://www.w3.org/1999/xlink"><metadata id="metadata22"><rdf:RDF><cc:Work rdf:about=""><dc:format>image/svg+xml</dc:format><dc:type rdf:resource="http://purl.org/dc/dcmitype/StillImage"/></cc:Work></rdf:RDF></metadata><sodipodi:namedview inkscape:window-height="540" inkscape:window-width="767" inkscape:pageshadow="2" inkscape:pageopacity="0.0" borderopacity="1.0" bordercolor="#666666" pagecolor="#ffffff" id="base" inkscape:zoom="0.35539137" inkscape:cx="372.04742" inkscape:cy="526.18048" inkscape:window-x="132" inkscape:window-y="132" inkscape:current-layer="svg2"/><defs id="defs4"><style type="text/css" id="style6">
   
    .str1 {stroke:#131516;stroke-width:3}
    .str0 {stroke:#131516;stroke-width:42}
    .fil0 {fill:none}
    .fil1 {fill:#131516}
   
  </style></defs><g id="Layer 1" transform="matrix(4.590815,0,0,4.575039,-21198.12,-23425.1)"><path class="fil0 str0" d="M 4534,6398 L 6502,6398" id="path9" style="fill:none;stroke:#131516;stroke-width:42"/><path class="fil0 str0" d="M 4534,7579 L 6502,7579" id="path11" style="fill:none;stroke:#131516;stroke-width:42"/><path class="fil0 str0" d="M 4534,6989 L 6502,6989" id="path13" style="fill:none;stroke:#131516;stroke-width:42"/><path class="fil0 str0" d="M 4534,5808 L 6502,5808" id="path15" style="fill:none;stroke:#131516;stroke-width:42"/><path class="fil0 str0" d="M 4534,5217 L 6502,5217" id="path17" style="fill:none;stroke:#131516;stroke-width:42"/><path class="fil1 str1" d="M 4752,7579 L 4752,5273 L 4752,5222 L 5018,5222 L 5018,7528 L 5018,7579 L 4752,7579 z M 5152,7579 L 5152,5273 L 5152,5222 L 5237,5222 L 5237,6377 C 5279,6355 5322,6310 5364,6239 C 5407,6169 5443,6095 5471,6016 C 5499,5937 5514,5879 5516,5841 C 5529,5925 5550,5992 5578,6043 C 5607,6093 5638,6129 5674,6151 C 5710,6172 5745,6183 5781,6183 C 5870,6183 5926,6143 5950,6062 C 5974,5981 5986,5882 5986,5765 C 5986,5712 5985,5664 5982,5622 C 5979,5580 5973,5537 5962,5494 C 5952,5451 5935,5412 5911,5378 C 5886,5344 5854,5320 5814,5308 C 5778,5298 5742,5293 5707,5293 C 5675,5293 5648,5299 5627,5310 C 5605,5321 5593,5338 5591,5358 C 5596,5376 5608,5397 5629,5422 C 5650,5446 5664,5465 5672,5477 C 5680,5489 5684,5506 5684,5529 C 5684,5570 5670,5604 5642,5632 C 5614,5660 5577,5675 5530,5675 C 5484,5675 5446,5658 5418,5625 C 5390,5591 5375,5551 5373,5506 C 5377,5445 5399,5392 5438,5348 C 5478,5305 5527,5272 5586,5250 C 5645,5228 5704,5217 5764,5217 C 5832,5217 5897,5229 5959,5253 C 6022,5277 6078,5313 6126,5359 C 6175,5406 6214,5463 6242,5531 C 6270,5598 6284,5675 6284,5760 C 6284,5878 6262,5976 6219,6053 C 6175,6131 6119,6189 6051,6225 C 5982,6261 5909,6281 5832,6283 C 5752,6278 5685,6260 5632,6229 L 5526,6401 L 5632,6572 C 5705,6542 5777,6527 5847,6527 C 5936,6527 6013,6553 6080,6603 C 6146,6654 6197,6719 6232,6800 C 6266,6881 6284,6964 6284,7050 C 6284,7144 6263,7232 6221,7313 C 6179,7394 6120,7458 6044,7507 C 5967,7555 5880,7579 5781,7579 C 5666,7574 5570,7547 5493,7497 C 5416,7448 5378,7374 5378,7277 C 5382,7230 5399,7194 5429,7167 C 5459,7139 5491,7125 5526,7122 C 5568,7122 5606,7137 5639,7167 C 5672,7196 5689,7233 5689,7277 C 5689,7294 5685,7310 5677,7325 C 5669,7339 5658,7356 5642,7376 C 5626,7395 5615,7409 5609,7418 C 5603,7428 5598,7439 5596,7453 C 5596,7471 5607,7486 5630,7498 C 5652,7510 5681,7517 5716,7520 C 5826,7515 5899,7468 5936,7381 C 5972,7292 5990,7183 5990,7050 C 5990,6935 5977,6834 5951,6748 C 5925,6661 5869,6618 5781,6618 C 5703,6618 5643,6651 5601,6719 C 5559,6786 5532,6865 5520,6956 C 5507,6879 5487,6805 5458,6734 C 5429,6662 5396,6599 5357,6545 C 5320,6492 5279,6449 5237,6419 L 5237,7579 L 5152,7579 z " id="path19" style="fill:#131516;stroke:#131516;stroke-width:3"/></g><style xmlns="" type="text/css" id="YouTubeAdBlocker">body:not(.allowAdsOnThisBody) .ad-container, body:not(.allowAdsOnThisBody) #google_companion_ad_div, body:not(.allowAdsOnThisBody) .iv-promo, body:not(.allowAdsOnThisBody) .iv-promo-video, body:not(.allowAdsOnThisBody) .contains-mute-button, body:not(.allowAdsOnThisBody) .video-annotations, body:not(.allowAdsOnThisBody) .ad-div, body:not(.allowAdsOnThisBody) #masthead-ad, body:not(.allowAdsOnThisBody) #video-masthead, body:not(.allowAdsOnThisBody) .video-masthead-v2, body:not(.allowAdsOnThisBody) ytd-compact-promoted-video-renderer, body:not(.allowAdsOnThisBody) #promotion-shelf, body:not(.allowAdsOnThisBody) .ytp-ad-progress-list, body:not(.allowAdsOnThisBody) .ad-created .annotation, body:not(.allowAdsOnThisBody) .ytp-cards-teaser, body:not(.allowAdsOnThisBody) #player-ads { display:none!important}</style></svg>