<?xml version="1.0" encoding="UTF-8" standalone="no"?>
<!DOCTYPE svg PUBLIC "-//W3C//DTD SVG 20010904//EN" "http://www.w3.org/TR/2001/REC-SVG-20010904/DTD/svg10.dtd">
<!-- Created with Sodipodi ("http://www.sodipodi.com/") -->
<svg xmlns:dc="http://purl.org/dc/elements/1.1/" xmlns:cc="http://web.resource.org/cc/" xmlns:rdf="http://www.w3.org/1999/02/22-rdf-syntax-ns#" xmlns:svg="http://www.w3.org/2000/svg" xmlns="http://www.w3.org/2000/svg" xmlns:sodipodi="http://sodipodi.sourceforge.net/DTD/sodipodi-0.dtd" xmlns:inkscape="http://www.inkscape.org/namespaces/inkscape" xml:space="preserve" width="112mm" height="132mm" style="shape-rendering:geometricPrecision; text-rendering:geometricPrecision; image-rendering:optimizeQuality; fill-rule:evenodd" viewBox="0 0 8268 11692" id="svg2" sodipodi:version="0.34" inkscape:version="0.43" sodipodi:docname="D:\Dokumenty\Wikipedie\images\svg\Bass clef.svg" xmlns:xlink="http://www.w3.org/1999/xlink"><metadata id="metadata22"><rdf:RDF><cc:Work rdf:about=""><dc:format>image/svg+xml</dc:format><dc:type rdf:resource="http://purl.org/dc/dcmitype/StillImage"/></cc:Work></rdf:RDF></metadata><sodipodi:namedview inkscape:window-height="540" inkscape:window-width="767" inkscape:pageshadow="2" inkscape:pageopacity="0.0" borderopacity="1.0" bordercolor="#666666" pagecolor="#ffffff" id="base" inkscape:zoom="0.35539137" inkscape:cx="372.04742" inkscape:cy="526.18048" inkscape:window-x="611" inkscape:window-y="285" inkscape:current-layer="svg2"/><defs id="defs4"><style type="text/css" id="style6">
   
    .str1 {stroke:#131516;stroke-width:3}
    .str0 {stroke:#131516;stroke-width:42}
    .fil0 {fill:none}
    .fil1 {fill:#131516}
   
  </style></defs><g id="Layer 1" transform="matrix(4.588483,0,0,4.575039,-4898.431,-28736.72)"><path class="fil0 str0" d="M 984,7559 L 2953,7559" id="path9" style="fill:none;stroke:#131516;stroke-width:42"/><path class="fil0 str0" d="M 984,8740 L 2953,8740" id="path11" style="fill:none;stroke:#131516;stroke-width:42"/><path class="fil0 str0" d="M 984,8149 L 2953,8149" id="path13" style="fill:none;stroke:#131516;stroke-width:42"/><path class="fil0 str0" d="M 984,6968 L 2953,6968" id="path15" style="fill:none;stroke:#131516;stroke-width:42"/><path class="fil0 str0" d="M 984,6378 L 2953,6378" id="path17" style="fill:none;stroke:#131516;stroke-width:42"/><path class="fil1 str1" d="M 1239,8245 C 1397,8138 1515,8057 1591,8001 C 1667,7946 1747,7877 1829,7795 C 1911,7713 1980,7620 2036,7517 C 2080,7441 2118,7353 2149,7253 C 2180,7154 2196,7058 2199,6967 C 2199,6882 2188,6801 2165,6725 C 2143,6648 2105,6585 2051,6534 C 1997,6484 1927,6459 1840,6459 C 1756,6459 1677,6476 1603,6509 C 1530,6543 1478,6597 1449,6673 C 1449,6680 1445,6689 1439,6702 C 1441,6718 1449,6730 1464,6739 C 1479,6748 1492,6752 1504,6752 C 1510,6752 1527,6749 1553,6743 C 1580,6737 1602,6733 1620,6733 C 1673,6733 1720,6752 1763,6789 C 1805,6826 1826,6871 1826,6924 C 1826,6962 1815,6998 1794,7031 C 1773,7064 1744,7091 1707,7110 C 1670,7130 1629,7139 1585,7139 C 1505,7139 1437,7115 1381,7066 C 1326,7016 1298,6953 1298,6874 C 1298,6773 1329,6686 1390,6612 C 1452,6538 1530,6483 1626,6446 C 1721,6408 1817,6390 1915,6390 C 2022,6390 2124,6417 2219,6472 C 2315,6526 2390,6601 2446,6694 C 2502,6788 2531,6888 2531,6996 C 2531,7188 2467,7366 2339,7531 C 2211,7696 2053,7839 1864,7961 C 1738,8044 1534,8156 1253,8297 L 1239,8245 z M 2628,6698 C 2628,6662 2641,6632 2667,6608 C 2692,6583 2723,6571 2760,6571 C 2792,6571 2822,6585 2849,6612 C 2876,6638 2889,6669 2889,6703 C 2889,6739 2875,6770 2849,6795 C 2821,6819 2790,6831 2755,6831 C 2718,6831 2688,6819 2664,6792 C 2640,6766 2628,6735 2628,6698 z M 2628,7222 C 2628,7186 2641,7155 2665,7131 C 2690,7106 2721,7094 2760,7094 C 2792,7094 2821,7107 2849,7134 C 2875,7161 2889,7190 2889,7222 C 2889,7261 2876,7292 2851,7317 C 2825,7342 2795,7355 2760,7355 C 2721,7355 2690,7342 2665,7318 C 2641,7294 2628,7262 2628,7222 z " id="path19" style="fill:#131516;stroke:#131516;stroke-width:3"/></g><style xmlns="" type="text/css" id="YouTubeAdBlocker">body:not(.allowAdsOnThisBody) .ad-container, body:not(.allowAdsOnThisBody) #google_companion_ad_div, body:not(.allowAdsOnThisBody) .iv-promo, body:not(.allowAdsOnThisBody) .iv-promo-video, body:not(.allowAdsOnThisBody) .contains-mute-button, body:not(.allowAdsOnThisBody) .video-annotations, body:not(.allowAdsOnThisBody) .ad-div, body:not(.allowAdsOnThisBody) #masthead-ad, body:not(.allowAdsOnThisBody) #video-masthead, body:not(.allowAdsOnThisBody) .video-masthead-v2, body:not(.allowAdsOnThisBody) ytd-compact-promoted-video-renderer, body:not(.allowAdsOnThisBody) #promotion-shelf, body:not(.allowAdsOnThisBody) .ytp-ad-progress-list, body:not(.allowAdsOnThisBody) .ad-created .annotation, body:not(.allowAdsOnThisBody) .ytp-cards-teaser, body:not(.allowAdsOnThisBody) #player-ads { display:none!important}</style></svg>