<?xml version="1.0" encoding="UTF-8" standalone="no"?>
<!DOCTYPE svg PUBLIC "-//W3C//DTD SVG 20010904//EN" "http://www.w3.org/TR/2001/REC-SVG-20010904/DTD/svg10.dtd">
<!-- Created with Sodipodi ("http://www.sodipodi.com/") -->
<svg xmlns:dc="http://purl.org/dc/elements/1.1/" xmlns:cc="http://web.resource.org/cc/" xmlns:rdf="http://www.w3.org/1999/02/22-rdf-syntax-ns#" xmlns:svg="http://www.w3.org/2000/svg" xmlns="http://www.w3.org/2000/svg" xmlns:sodipodi="http://sodipodi.sourceforge.net/DTD/sodipodi-0.dtd" xmlns:inkscape="http://www.inkscape.org/namespaces/inkscape" xml:space="preserve" width="112mm" height="162.5mm" style="shape-rendering:geometricPrecision; text-rendering:geometricPrecision; image-rendering:optimizeQuality; fill-rule:evenodd" viewBox="0 0 8268 11692" id="svg2" sodipodi:version="0.34" inkscape:version="0.43" sodipodi:docname="D:\Dokumenty\Wikipedie\images\svg\Tenor clef.svg" xmlns:xlink="http://www.w3.org/1999/xlink"><metadata id="metadata22"><rdf:RDF><cc:Work rdf:about=""><dc:format>image/svg+xml</dc:format><dc:type rdf:resource="http://purl.org/dc/dcmitype/StillImage"/></cc:Work></rdf:RDF></metadata><sodipodi:namedview inkscape:window-height="540" inkscape:window-width="767" inkscape:pageshadow="2" inkscape:pageopacity="0.0" borderopacity="1.0" bordercolor="#666666" pagecolor="#ffffff" id="base" inkscape:zoom="0.35539137" inkscape:cx="372.04742" inkscape:cy="526.18048" inkscape:window-x="110" inkscape:window-y="110" inkscape:current-layer="svg2"/><defs id="defs4"><style type="text/css" id="style6">
   
    .str1 {stroke:#131516;stroke-width:3}
    .str0 {stroke:#131516;stroke-width:42}
    .fil0 {fill:none}
    .fil1 {fill:#131516}
   
  </style></defs><g id="Layer 1" transform="matrix(2.058765,0,0,1.875045,-6892.157,-4468.622)"><path class="fil0 str0" d="M 3527,6102 L 7543,6102" id="path9" style="fill:none;stroke:#131516;stroke-width:42"/><path class="fil0 str0" d="M 3527,8503 L 7543,8503" id="path11" style="fill:none;stroke:#131516;stroke-width:42"/><path class="fil0 str0" d="M 3527,7302 L 7543,7302" id="path13" style="fill:none;stroke:#131516;stroke-width:42"/><path class="fil0 str0" d="M 3527,4901 L 7543,4901" id="path15" style="fill:none;stroke:#131516;stroke-width:42"/><path class="fil0 str0" d="M 3527,3700 L 7543,3700" id="path17" style="fill:none;stroke:#131516;stroke-width:42"/><path class="fil1 str1" d="M 3973,7302 L 3973,2612 L 3973,2509 L 4515,2509 L 4515,7199 L 4515,7302 L 3973,7302 z M 4788,7302 L 4788,2612 L 4788,2509 L 4960,2509 L 4960,4859 C 5047,4814 5134,4721 5221,4578 C 5308,4436 5381,4284 5438,4124 C 5496,3964 5527,3846 5530,3768 C 5557,3939 5600,4075 5657,4178 C 5715,4281 5780,4354 5852,4398 C 5925,4442 5998,4464 6072,4464 C 6252,4464 6368,4382 6416,4216 C 6465,4052 6489,3850 6489,3614 C 6489,3506 6487,3409 6481,3323 C 6476,3236 6463,3149 6441,3062 C 6420,2974 6385,2895 6335,2826 C 6285,2757 6219,2709 6137,2683 C 6064,2664 5991,2654 5919,2654 C 5854,2654 5800,2666 5756,2689 C 5713,2712 5688,2745 5683,2786 C 5693,2822 5719,2865 5761,2915 C 5804,2965 5833,3003 5849,3027 C 5865,3052 5873,3088 5873,3134 C 5873,3216 5844,3286 5787,3344 C 5730,3401 5654,3430 5558,3430 C 5464,3430 5388,3396 5331,3328 C 5274,3260 5243,3179 5238,3087 C 5247,2962 5292,2856 5372,2766 C 5453,2678 5554,2611 5673,2567 C 5794,2522 5914,2499 6036,2499 C 6174,2499 6307,2524 6435,2573 C 6562,2622 6676,2694 6775,2788 C 6875,2883 6954,3000 7011,3137 C 7068,3274 7097,3430 7097,3603 C 7097,3843 7053,4042 6964,4200 C 6875,4358 6761,4475 6622,4549 C 6482,4623 6333,4662 6174,4666 C 6012,4657 5876,4620 5766,4558 L 5550,4906 L 5766,5253 C 5917,5193 6063,5163 6206,5163 C 6387,5163 6544,5215 6680,5318 C 6816,5420 6920,5554 6990,5718 C 7061,5882 7097,6051 7097,6226 C 7097,6418 7054,6596 6969,6760 C 6883,6925 6763,7057 6607,7155 C 6451,7253 6273,7302 6072,7302 C 5837,7292 5641,7237 5483,7136 C 5327,7035 5248,6885 5248,6687 C 5258,6593 5293,6518 5354,6464 C 5414,6408 5479,6378 5550,6373 C 5637,6373 5714,6403 5781,6464 C 5849,6524 5883,6598 5883,6688 C 5883,6723 5875,6755 5859,6785 C 5843,6814 5819,6849 5787,6888 C 5754,6927 5732,6956 5720,6975 C 5707,6994 5698,7017 5693,7046 C 5693,7082 5716,7112 5762,7137 C 5808,7161 5867,7176 5938,7181 C 6163,7171 6312,7077 6386,6898 C 6461,6719 6498,6496 6498,6227 C 6498,5993 6471,5788 6419,5611 C 6365,5435 6249,5347 6072,5347 C 5913,5347 5790,5416 5703,5553 C 5618,5689 5563,5849 5539,6034 C 5513,5879 5470,5729 5411,5583 C 5353,5437 5285,5310 5207,5200 C 5130,5091 5047,5005 4960,4943 L 4960,7302 L 4788,7302 z " id="path19" style="fill:#131516;stroke:#131516;stroke-width:3"/></g><style xmlns="" type="text/css" id="YouTubeAdBlocker">body:not(.allowAdsOnThisBody) .ad-container, body:not(.allowAdsOnThisBody) #google_companion_ad_div, body:not(.allowAdsOnThisBody) .iv-promo, body:not(.allowAdsOnThisBody) .iv-promo-video, body:not(.allowAdsOnThisBody) .contains-mute-button, body:not(.allowAdsOnThisBody) .video-annotations, body:not(.allowAdsOnThisBody) .ad-div, body:not(.allowAdsOnThisBody) #masthead-ad, body:not(.allowAdsOnThisBody) #video-masthead, body:not(.allowAdsOnThisBody) .video-masthead-v2, body:not(.allowAdsOnThisBody) ytd-compact-promoted-video-renderer, body:not(.allowAdsOnThisBody) #promotion-shelf, body:not(.allowAdsOnThisBody) .ytp-ad-progress-list, body:not(.allowAdsOnThisBody) .ad-created .annotation, body:not(.allowAdsOnThisBody) .ytp-cards-teaser, body:not(.allowAdsOnThisBody) #player-ads { display:none!important}</style></svg>