<?xml version="1.0" encoding="UTF-8" standalone="no"?>
<svg
   xmlns:dc="http://purl.org/dc/elements/1.1/"
   xmlns:cc="http://creativecommons.org/ns#"
   xmlns:rdf="http://www.w3.org/1999/02/22-rdf-syntax-ns#"
   xmlns:svg="http://www.w3.org/2000/svg"
   xmlns="http://www.w3.org/2000/svg"
   xmlns:sodipodi="http://sodipodi.sourceforge.net/DTD/sodipodi-0.dtd"
   xmlns:inkscape="http://www.inkscape.org/namespaces/inkscape"
   version="1.0"
   width="1280pt"
   height="470pt"
   viewBox="0 0 1280 470"
   preserveAspectRatio="xMidYMid meet"
   id="svg8"
   sodipodi:docname="piano-with-no-flats.svg"
   inkscape:version="0.92.2 5c3e80d, 2017-08-06">
  <defs
     id="defs12" />
  <sodipodi:namedview
     pagecolor="#ffffff"
     bordercolor="#666666"
     borderopacity="1"
     objecttolerance="10"
     gridtolerance="10"
     guidetolerance="10"
     inkscape:pageopacity="0"
     inkscape:pageshadow="2"
     inkscape:window-width="1440"
     inkscape:window-height="851"
     id="namedview10"
     showgrid="false"
     showguides="true"
     inkscape:guide-bbox="true"
     inkscape:zoom="0.53695921"
     inkscape:cx="831.23666"
     inkscape:cy="343.90855"
     inkscape:window-x="0"
     inkscape:window-y="0"
     inkscape:window-maximized="0"
     inkscape:current-layer="svg8" />
  <metadata
     id="metadata2">
Created by potrace 1.15, written by Peter Selinger 2001-2017
<rdf:RDF>
  <cc:Work
     rdf:about="">
    <dc:format>image/svg+xml</dc:format>
    <dc:type
       rdf:resource="http://purl.org/dc/dcmitype/StillImage" />
    <dc:title></dc:title>
  </cc:Work>
</rdf:RDF>
</metadata>
  <g
     transform="matrix(0.1,0,0,-0.1,0.98377088,586.91437)"
     id="g6"
     style="fill:#000000;stroke:none">
    <path
       d="M 3203,5193 0,5190 V 3195 1200 h 3194 c 2119,0 3197,3 3201,10 4,7 1083,10 3206,10 h 3199 v 1990 1990 l -3197,-2 c -1759,-2 -4639,-4 -6400,-5 z M 7090,4050 V 2920 h 105 105 v -840 -840 h -440 -440 v 1970 1970 h 335 335 z m 910,0 V 2920 h 110 110 v -840 -840 h -437 -438 l 2,837 3,838 104,3 103,3 7,37 c 3,20 6,529 6,1130 v 1092 h 215 215 z M 9120,3210 V 1240 h -427 -428 l 2,837 3,838 100,3 c 99,3 100,3 100,27 0,16 6,25 15,25 13,0 15,129 15,1105 v 1105 h 310 310 z m 700,840 V 2920 h 105 105 v -840 -840 h -430 -430 v 1970 1970 h 325 325 z m 912,-7 3,-1138 103,-3 102,-3 v -829 -830 h -430 -430 v 840 840 h 120 120 v 1105 c 0,976 -2,1105 -15,1105 -9,0 -15,9 -15,25 v 25 h 220 220 z m 918,7 V 2921 l 105,-3 105,-3 3,-838 2,-837 h -437 -438 v 830 830 h 115 115 v 1105 c 0,730 -3,1105 -10,1105 -5,0 -10,16 -10,35 v 35 h 225 225 z m 1130,-840 V 1240 h -435 -435 v 840 840 h 110 110 l -2,1130 -3,1130 h 328 327 z M 690,4035 V 2900 H 790 890 V 2060 1220 H 455 20 v 1975 1975 h 335 335 z m 910,-1 V 2899 l 105,3 105,3 v -843 -842 l -432,2 -433,3 -3,838 -2,837 h 110 c 91,0 110,3 110,15 0,8 7,15 15,15 13,0 15,129 15,1100 0,971 -2,1100 -15,1100 -8,0 -15,9 -15,20 0,19 7,20 220,20 h 220 z M 2720,3195 V 1220 h -430 -430 l 2,841 3,840 100,2 c 95,2 100,3 103,25 2,12 8,22 13,22 5,0 9,430 9,1104 0,874 -3,1105 -12,1109 -7,3 134,6 315,6 l 327,1 z m 700,845 V 2910 h 105 105 v -845 -845 h -430 -430 v 1975 1975 h 325 325 z m 900,-5 V 2900 h 108 107 l -2,-837 -3,-838 -425,-3 -425,-2 v 845 845 h 105 c 98,0 105,1 105,20 0,11 5,20 10,20 16,0 14,2207 -2,2213 -7,3 85,6 205,6 l 217,1 z m 922,3 3,-1133 h 107 108 v -843 -842 l -437,2 -438,3 -3,838 -2,837 h 102 c 102,0 103,0 116,27 16,35 18,2213 2,2213 -5,0 -10,7 -10,15 0,13 32,15 225,15 h 225 z m 1136,-840 -3,-1973 -433,-3 -432,-2 2,841 3,841 h 98 c 76,0 97,3 97,13 0,8 6,18 13,22 18,12 18,2194 0,2206 -37,23 6,27 322,27 h 335 z"
       id="path4"
       inkscape:connector-curvature="0" />
  </g>
  <flowRoot
     xml:space="preserve"
     id="flowRoot70"
     style="font-style:normal;font-weight:normal;font-size:40px;line-height:1.25;font-family:sans-serif;letter-spacing:0px;word-spacing:0px;fill:#000000;fill-opacity:1;stroke:none"
     transform="matrix(0.75000002,0,0,0.75000002,0.98377088,-53.08563)"><flowRegion
       id="flowRegion72"><rect
         id="rect74"
         width="68.90654"
         height="74.493553"
         x="262.58978"
         y="527.42401" /></flowRegion><flowPara
       id="flowPara76"></flowPara></flowRoot>  <flowRoot
     xml:space="preserve"
     id="flowRoot80"
     style="font-style:normal;font-weight:normal;font-size:40px;line-height:1.25;font-family:sans-serif;letter-spacing:0px;word-spacing:0px;fill:#000000;fill-opacity:1;stroke:none"
     transform="matrix(0.75000002,0,0,0.75000002,0.98377088,-53.08563)"><flowRegion
       id="flowRegion82"><rect
         id="rect84"
         width="44.696133"
         height="65.181862"
         x="1007.5253"
         y="506.93829" /></flowRegion><flowPara
       id="flowPara86"></flowPara></flowRoot>  <text
     xml:space="preserve"
     style="font-style:normal;font-weight:normal;font-size:30px;line-height:1.25;font-family:sans-serif;letter-spacing:0px;word-spacing:0px;fill:#000000;fill-opacity:1;stroke:none;stroke-width:0.75"
     x="24.72859"
     y="367.62396"
     id="text94"><tspan
       sodipodi:role="line"
       id="tspan92"
       x="24.72859"
       y="394.16693"
       style="stroke-width:0.75" /></text>
  <flowRoot
     xml:space="preserve"
     id="flowRoot96"
     style="font-style:normal;font-weight:normal;font-size:53.33333206px;line-height:1.25;font-family:sans-serif;letter-spacing:0px;word-spacing:0px;fill:#000000;fill-opacity:1;stroke:none"
     transform="matrix(0.75000002,0,0,0.75000002,0.98377088,-53.08563)"><flowRegion
       id="flowRegion98"
       style="font-size:53.33333206px"><rect
         id="rect100"
         width="91.254601"
         height="74.493553"
         x="-230.93002"
         y="341.19016"
         style="font-size:53.33333206px" /></flowRegion><flowPara
       id="flowPara102"></flowPara></flowRoot>  <text
     xml:space="preserve"
     style="font-style:normal;font-weight:normal;font-size:36px;line-height:1.25;font-family:sans-serif;letter-spacing:0px;word-spacing:0px;fill:#000000;fill-opacity:1;stroke:none;stroke-width:0.75"
     x="-222.4969"
     y="276.83496"
     id="text106"><tspan
       sodipodi:role="line"
       id="tspan104"
       x="-222.4969"
       y="308.68652"
       style="font-size:36px;stroke-width:0.75" /></text>
  <text
     xml:space="preserve"
     style="font-style:normal;font-weight:normal;font-size:40px;line-height:1.25;font-family:sans-serif;letter-spacing:0px;word-spacing:0px;fill:#000000;fill-opacity:1;stroke:none;stroke-width:0.75"
     x="30.935085"
     y="396.94995"
     id="text110"><tspan
       sodipodi:role="line"
       id="tspan108"
       x="30.935085"
       y="396.94995"
       style="stroke-width:0.75">c</tspan></text>
  <text
     xml:space="preserve"
     style="font-style:normal;font-weight:normal;font-size:40px;line-height:1.25;font-family:sans-serif;letter-spacing:0px;word-spacing:0px;fill:#000000;fill-opacity:1;stroke:none;stroke-width:0.75"
     x="121.10462"
     y="396.27588"
     id="text114"><tspan
       sodipodi:role="line"
       id="tspan112"
       x="121.10462"
       y="396.27588"
       style="stroke-width:0.75">d</tspan></text>
  <text
     xml:space="preserve"
     style="font-style:normal;font-weight:normal;font-size:40px;line-height:1.25;font-family:sans-serif;letter-spacing:0px;word-spacing:0px;fill:#000000;fill-opacity:1;stroke:none;stroke-width:0.75"
     x="219.34496"
     y="394.67267"
     id="text118"><tspan
       sodipodi:role="line"
       id="tspan116"
       x="219.34496"
       y="394.67267"
       style="stroke-width:0.75">e</tspan></text>
  <text
     xml:space="preserve"
     style="font-style:normal;font-weight:normal;font-size:40px;line-height:1.25;font-family:sans-serif;letter-spacing:0px;word-spacing:0px;fill:#000000;fill-opacity:1;stroke:none;stroke-width:0.75"
     x="310.4924"
     y="396.0694"
     id="text122"><tspan
       sodipodi:role="line"
       id="tspan120"
       x="310.4924"
       y="396.0694"
       style="stroke-width:0.75">f</tspan></text>
  <text
     xml:space="preserve"
     style="font-style:normal;font-weight:normal;font-size:40px;line-height:1.25;font-family:sans-serif;letter-spacing:0px;word-spacing:0px;fill:#000000;fill-opacity:1;stroke:none;stroke-width:0.75"
     x="399.05869"
     y="398.75964"
     id="text126"><tspan
       sodipodi:role="line"
       id="tspan124"
       x="399.05869"
       y="398.75964"
       style="stroke-width:0.75">g</tspan></text>
  <text
     xml:space="preserve"
     style="font-style:normal;font-weight:normal;font-size:40px;line-height:1.25;font-family:sans-serif;letter-spacing:0px;word-spacing:0px;fill:#000000;fill-opacity:1;stroke:none;stroke-width:0.75"
     x="486.07043"
     y="394.87915"
     id="text130"><tspan
       sodipodi:role="line"
       id="tspan128"
       x="486.07043"
       y="394.87915"
       style="stroke-width:0.75">a</tspan></text>
  <text
     xml:space="preserve"
     style="font-style:normal;font-weight:normal;font-size:40px;line-height:1.25;font-family:sans-serif;letter-spacing:0px;word-spacing:0px;fill:#000000;fill-opacity:1;stroke:none;stroke-width:0.75"
     x="583.43024"
     y="396.94995"
     id="text134"><tspan
       sodipodi:role="line"
       id="tspan132"
       x="583.43024"
       y="396.94995"
       style="stroke-width:0.75">b</tspan></text>
  <text
     xml:space="preserve"
     style="font-style:normal;font-weight:normal;font-size:40px;line-height:1.25;font-family:sans-serif;letter-spacing:0px;word-spacing:0px;fill:#000000;fill-opacity:1;stroke:none;stroke-width:0.75"
     x="676.49658"
     y="395.86292"
     id="text138"><tspan
       sodipodi:role="line"
       id="tspan136"
       x="676.49658"
       y="395.86292"
       style="stroke-width:0.75">c</tspan></text>
  <text
     xml:space="preserve"
     style="font-style:normal;font-weight:normal;font-size:40px;line-height:1.25;font-family:sans-serif;letter-spacing:0px;word-spacing:0px;fill:#000000;fill-opacity:1;stroke:none;stroke-width:0.75"
     x="767.492"
     y="396.58563"
     id="text142"><tspan
       sodipodi:role="line"
       id="tspan140"
       x="767.492"
       y="396.58563"
       style="stroke-width:0.75">d</tspan></text>
  <text
     xml:space="preserve"
     style="font-style:normal;font-weight:normal;font-size:40px;line-height:1.25;font-family:sans-serif;letter-spacing:0px;word-spacing:0px;fill:#000000;fill-opacity:1;stroke:none;stroke-width:0.75"
     x="859.16156"
     y="394.5694"
     id="text146"><tspan
       sodipodi:role="line"
       id="tspan144"
       x="859.16156"
       y="394.5694"
       style="stroke-width:0.75">e</tspan></text>
  <text
     xml:space="preserve"
     style="font-style:normal;font-weight:normal;font-size:40px;line-height:1.25;font-family:sans-serif;letter-spacing:0px;word-spacing:0px;fill:#000000;fill-opacity:1;stroke:none;stroke-width:0.75"
     x="958.22784"
     y="396.43372"
     id="text150"><tspan
       sodipodi:role="line"
       id="tspan148"
       x="958.22784"
       y="396.43372"
       style="stroke-width:0.75">f</tspan></text>
  <text
     xml:space="preserve"
     style="font-style:normal;font-weight:normal;font-size:40px;line-height:1.25;font-family:sans-serif;letter-spacing:0px;word-spacing:0px;fill:#000000;fill-opacity:1;stroke:none;stroke-width:0.75"
     x="1040.0656"
     y="396.43372"
     id="text154"><tspan
       sodipodi:role="line"
       id="tspan152"
       x="1040.0656"
       y="396.43372"
       style="stroke-width:0.75">g</tspan></text>
  <text
     xml:space="preserve"
     style="font-style:normal;font-weight:normal;font-size:40px;line-height:1.25;font-family:sans-serif;letter-spacing:0px;word-spacing:0px;fill:#000000;fill-opacity:1;stroke:none;stroke-width:0.75"
     x="1133.2351"
     y="394.41748"
     id="text158"><tspan
       sodipodi:role="line"
       id="tspan156"
       x="1133.2351"
       y="394.41748"
       style="stroke-width:0.75">a</tspan></text>
  <text
     xml:space="preserve"
     style="font-style:normal;font-weight:normal;font-size:40px;line-height:1.25;font-family:sans-serif;letter-spacing:0px;word-spacing:0px;fill:#000000;fill-opacity:1;stroke:none;stroke-width:0.75"
     x="1221.2794"
     y="394.93372"
     id="text162"><tspan
       sodipodi:role="line"
       id="tspan160"
       x="1221.2794"
       y="394.93372"
       style="stroke-width:0.75">b</tspan></text>
  <text
     xml:space="preserve"
     style="font-style:normal;font-weight:normal;font-size:40px;line-height:1.25;font-family:sans-serif;letter-spacing:0px;word-spacing:0px;fill:#000000;fill-opacity:1;stroke:none;stroke-width:0.75"
     x="67.82148"
     y="54.332176"
     id="text166"><tspan
       sodipodi:role="line"
       id="tspan164"
       x="67.82148"
       y="54.332176"
       style="stroke-width:0.75">c#</tspan></text>
  <text
     xml:space="preserve"
     style="font-style:normal;font-weight:normal;font-size:40px;line-height:1.25;font-family:sans-serif;letter-spacing:0px;word-spacing:0px;fill:#000000;fill-opacity:1;stroke:none;stroke-width:0.75"
     x="159.22997"
     y="54.745163"
     id="text170"><tspan
       sodipodi:role="line"
       id="tspan168"
       x="159.22997"
       y="54.745163"
       style="stroke-width:0.75">d#</tspan></text>
  <text
     xml:space="preserve"
     style="font-style:normal;font-weight:normal;font-size:40px;line-height:1.25;font-family:sans-serif;letter-spacing:0px;word-spacing:0px;fill:#000000;fill-opacity:1;stroke:none;stroke-width:0.75"
     x="345.56906"
     y="53.348419"
     id="text174"><tspan
       sodipodi:role="line"
       id="tspan172"
       x="345.56906"
       y="53.348419"
       style="stroke-width:0.75">f#</tspan></text>
  <text
     xml:space="preserve"
     style="font-style:normal;font-weight:normal;font-size:40px;line-height:1.25;font-family:sans-serif;letter-spacing:0px;word-spacing:0px;fill:#000000;fill-opacity:1;stroke:none;stroke-width:0.75"
     x="428.59702"
     y="55.315964"
     id="text178"><tspan
       sodipodi:role="line"
       id="tspan176"
       x="428.59702"
       y="55.315964"
       style="stroke-width:0.75">g#</tspan></text>
  <text
     xml:space="preserve"
     style="font-style:normal;font-weight:normal;font-size:40px;line-height:1.25;font-family:sans-serif;letter-spacing:0px;word-spacing:0px;fill:#000000;fill-opacity:1;stroke:none;stroke-width:0.75"
     x="530.35358"
     y="53.196487"
     id="text182"><tspan
       sodipodi:role="line"
       id="tspan180"
       x="530.35358"
       y="53.196487"
       style="stroke-width:0.75">a#</tspan></text>
  <text
     xml:space="preserve"
     style="font-style:normal;font-weight:normal;font-size:40px;line-height:1.25;font-family:sans-serif;letter-spacing:0px;word-spacing:0px;fill:#000000;fill-opacity:1;stroke:none;stroke-width:0.75"
     x="704.06738"
     y="52.522461"
     id="text186"><tspan
       sodipodi:role="line"
       id="tspan184"
       x="704.06738"
       y="52.522461"
       style="stroke-width:0.75">c#</tspan></text>
  <text
     xml:space="preserve"
     style="font-style:normal;font-weight:normal;font-size:40px;line-height:1.25;font-family:sans-serif;letter-spacing:0px;word-spacing:0px;fill:#000000;fill-opacity:1;stroke:none;stroke-width:0.75"
     x="797.75311"
     y="52.522461"
     id="text190"><tspan
       sodipodi:role="line"
       id="tspan188"
       x="797.75311"
       y="52.522461"
       style="stroke-width:0.75">d#</tspan></text>
  <text
     xml:space="preserve"
     style="font-style:normal;font-weight:normal;font-size:40px;line-height:1.25;font-family:sans-serif;letter-spacing:0px;word-spacing:0px;fill:#000000;fill-opacity:1;stroke:none;stroke-width:0.75"
     x="984.19543"
     y="53.609467"
     id="text194"><tspan
       sodipodi:role="line"
       id="tspan192"
       x="984.19543"
       y="53.609467"
       style="stroke-width:0.75">f#</tspan></text>
  <text
     xml:space="preserve"
     style="font-style:normal;font-weight:normal;font-size:40px;line-height:1.25;font-family:sans-serif;letter-spacing:0px;word-spacing:0px;fill:#000000;fill-opacity:1;stroke:none;stroke-width:0.75"
     x="1068.7234"
     y="54.125687"
     id="text198"><tspan
       sodipodi:role="line"
       id="tspan196"
       x="1068.7234"
       y="54.125687"
       style="stroke-width:0.75">g#</tspan></text>
  <text
     xml:space="preserve"
     style="font-style:normal;font-weight:normal;font-size:40px;line-height:1.25;font-family:sans-serif;letter-spacing:0px;word-spacing:0px;fill:#000000;fill-opacity:1;stroke:none;stroke-width:0.75"
     x="1160.2897"
     y="52.728943"
     id="text202"><tspan
       sodipodi:role="line"
       id="tspan200"
       x="1160.2897"
       y="52.728943"
       style="stroke-width:0.75">a#</tspan></text>
</svg>
