<?xml version="1.0" encoding="UTF-8" standalone="no"?>
<svg
   xmlns:dc="http://purl.org/dc/elements/1.1/"
   xmlns:cc="http://creativecommons.org/ns#"
   xmlns:rdf="http://www.w3.org/1999/02/22-rdf-syntax-ns#"
   xmlns:svg="http://www.w3.org/2000/svg"
   xmlns="http://www.w3.org/2000/svg"
   id="svg8"
   preserveAspectRatio="xMidYMid meet"
   viewBox="0 0 1280 512"
   height="512pt"
   width="1280pt"
   version="1.0">
  <defs
     id="defs12" />
  <metadata
     id="metadata2">
Created by potrace 1.15, written by Peter Selinger 2001-2017
<rdf:RDF>
  <cc:Work
     rdf:about="">
    <dc:format>image/svg+xml</dc:format>
    <dc:type
       rdf:resource="http://purl.org/dc/dcmitype/StillImage" />
    <dc:title></dc:title>
  </cc:Work>
</rdf:RDF>
</metadata>
  <g
     style="fill:#000000;stroke:none"
     id="g6"
     transform="matrix(0.1,0,0,-0.1,0.98377088,628.91437)">
    <path
       id="path4"
       d="M 3203,5193 0,5190 V 3195 1200 h 3194 c 2119,0 3197,3 3201,10 4,7 1083,10 3206,10 h 3199 v 1990 1990 l -3197,-2 c -1759,-2 -4639,-4 -6400,-5 z M 7090,4050 V 2920 h 105 105 v -840 -840 h -440 -440 v 1970 1970 h 335 335 z m 910,0 V 2920 h 110 110 v -840 -840 h -437 -438 l 2,837 3,838 104,3 103,3 7,37 c 3,20 6,529 6,1130 v 1092 h 215 215 z M 9120,3210 V 1240 h -427 -428 l 2,837 3,838 100,3 c 99,3 100,3 100,27 0,16 6,25 15,25 13,0 15,129 15,1105 v 1105 h 310 310 z m 700,840 V 2920 h 105 105 v -840 -840 h -430 -430 v 1970 1970 h 325 325 z m 912,-7 3,-1138 103,-3 102,-3 v -829 -830 h -430 -430 v 840 840 h 120 120 v 1105 c 0,976 -2,1105 -15,1105 -9,0 -15,9 -15,25 v 25 h 220 220 z m 918,7 V 2921 l 105,-3 105,-3 3,-838 2,-837 h -437 -438 v 830 830 h 115 115 v 1105 c 0,730 -3,1105 -10,1105 -5,0 -10,16 -10,35 v 35 h 225 225 z m 1130,-840 V 1240 h -435 -435 v 840 840 h 110 110 l -2,1130 -3,1130 h 328 327 z M 690,4035 V 2900 H 790 890 V 2060 1220 H 455 20 v 1975 1975 h 335 335 z m 910,-1 V 2899 l 105,3 105,3 v -843 -842 l -432,2 -433,3 -3,838 -2,837 h 110 c 91,0 110,3 110,15 0,8 7,15 15,15 13,0 15,129 15,1100 0,971 -2,1100 -15,1100 -8,0 -15,9 -15,20 0,19 7,20 220,20 h 220 z M 2720,3195 V 1220 h -430 -430 l 2,841 3,840 100,2 c 95,2 100,3 103,25 2,12 8,22 13,22 5,0 9,430 9,1104 0,874 -3,1105 -12,1109 -7,3 134,6 315,6 l 327,1 z m 700,845 V 2910 h 105 105 v -845 -845 h -430 -430 v 1975 1975 h 325 325 z m 900,-5 V 2900 h 108 107 l -2,-837 -3,-838 -425,-3 -425,-2 v 845 845 h 105 c 98,0 105,1 105,20 0,11 5,20 10,20 16,0 14,2207 -2,2213 -7,3 85,6 205,6 l 217,1 z m 922,3 3,-1133 h 107 108 v -843 -842 l -437,2 -438,3 -3,838 -2,837 h 102 c 102,0 103,0 116,27 16,35 18,2213 2,2213 -5,0 -10,7 -10,15 0,13 32,15 225,15 h 225 z m 1136,-840 -3,-1973 -433,-3 -432,-2 2,841 3,841 h 98 c 76,0 97,3 97,13 0,8 6,18 13,22 18,12 18,2194 0,2206 -37,23 6,27 322,27 h 335 z" />
  </g>
  <flowRoot
     transform="matrix(0.75000002,0,0,0.75000002,0.98377088,-11.08563)"
     style="font-style:normal;font-weight:normal;font-size:40px;line-height:1.25;font-family:sans-serif;letter-spacing:0px;word-spacing:0px;fill:#000000;fill-opacity:1;stroke:none"
     id="flowRoot70"
     xml:space="preserve"><flowRegion
       id="flowRegion72"><rect
         y="527.42401"
         x="262.58978"
         height="74.493553"
         width="68.90654"
         id="rect74" /></flowRegion><flowPara
       id="flowPara76"></flowPara></flowRoot>  <flowRoot
     transform="matrix(0.75000002,0,0,0.75000002,0.98377088,-11.08563)"
     style="font-style:normal;font-weight:normal;font-size:40px;line-height:1.25;font-family:sans-serif;letter-spacing:0px;word-spacing:0px;fill:#000000;fill-opacity:1;stroke:none"
     id="flowRoot80"
     xml:space="preserve"><flowRegion
       id="flowRegion82"><rect
         y="506.93829"
         x="1007.5253"
         height="65.181862"
         width="44.696133"
         id="rect84" /></flowRegion><flowPara
       id="flowPara86"></flowPara></flowRoot>  <text
     id="text94"
     y="409.62396"
     x="24.72859"
     style="font-style:normal;font-weight:normal;font-size:30px;line-height:1.25;font-family:sans-serif;letter-spacing:0px;word-spacing:0px;fill:#000000;fill-opacity:1;stroke:none;stroke-width:0.75"
     xml:space="preserve"><tspan
       style="stroke-width:0.75"
       y="436.16693"
       x="24.72859"
       id="tspan92" /></text>
  <flowRoot
     transform="matrix(0.75000002,0,0,0.75000002,0.98377088,-11.08563)"
     style="font-style:normal;font-weight:normal;font-size:53.33333206px;line-height:1.25;font-family:sans-serif;letter-spacing:0px;word-spacing:0px;fill:#000000;fill-opacity:1;stroke:none"
     id="flowRoot96"
     xml:space="preserve"><flowRegion
       style="font-size:53.33333206px"
       id="flowRegion98"><rect
         style="font-size:53.33333206px"
         y="341.19016"
         x="-230.93002"
         height="74.493553"
         width="91.254601"
         id="rect100" /></flowRegion><flowPara
       id="flowPara102"></flowPara></flowRoot>  <text
     id="text106"
     y="318.83496"
     x="-222.4969"
     style="font-style:normal;font-weight:normal;font-size:36px;line-height:1.25;font-family:sans-serif;letter-spacing:0px;word-spacing:0px;fill:#000000;fill-opacity:1;stroke:none;stroke-width:0.75"
     xml:space="preserve"><tspan
       style="font-size:36px;stroke-width:0.75"
       y="350.68652"
       x="-222.4969"
       id="tspan104" /></text>
  <text
     id="text110"
     y="438.94995"
     x="30.935085"
     style="font-style:normal;font-weight:normal;font-size:40px;line-height:1.25;font-family:sans-serif;letter-spacing:0px;word-spacing:0px;fill:#000000;fill-opacity:1;stroke:none;stroke-width:0.75"
     xml:space="preserve"><tspan
       style="stroke-width:0.75"
       y="438.94995"
       x="30.935085"
       id="tspan108">c</tspan></text>
  <text
     id="text114"
     y="438.27588"
     x="121.10462"
     style="font-style:normal;font-weight:normal;font-size:40px;line-height:1.25;font-family:sans-serif;letter-spacing:0px;word-spacing:0px;fill:#000000;fill-opacity:1;stroke:none;stroke-width:0.75"
     xml:space="preserve"><tspan
       style="stroke-width:0.75"
       y="438.27588"
       x="121.10462"
       id="tspan112">d</tspan></text>
  <text
     id="text118"
     y="436.67267"
     x="219.34496"
     style="font-style:normal;font-weight:normal;font-size:40px;line-height:1.25;font-family:sans-serif;letter-spacing:0px;word-spacing:0px;fill:#000000;fill-opacity:1;stroke:none;stroke-width:0.75"
     xml:space="preserve"><tspan
       style="stroke-width:0.75"
       y="436.67267"
       x="219.34496"
       id="tspan116">e</tspan></text>
  <text
     id="text122"
     y="438.0694"
     x="310.4924"
     style="font-style:normal;font-weight:normal;font-size:40px;line-height:1.25;font-family:sans-serif;letter-spacing:0px;word-spacing:0px;fill:#000000;fill-opacity:1;stroke:none;stroke-width:0.75"
     xml:space="preserve"><tspan
       style="stroke-width:0.75"
       y="438.0694"
       x="310.4924"
       id="tspan120">f</tspan></text>
  <text
     id="text126"
     y="440.75964"
     x="399.05869"
     style="font-style:normal;font-weight:normal;font-size:40px;line-height:1.25;font-family:sans-serif;letter-spacing:0px;word-spacing:0px;fill:#000000;fill-opacity:1;stroke:none;stroke-width:0.75"
     xml:space="preserve"><tspan
       style="stroke-width:0.75"
       y="440.75964"
       x="399.05869"
       id="tspan124">g</tspan></text>
  <text
     id="text130"
     y="436.87915"
     x="486.07043"
     style="font-style:normal;font-weight:normal;font-size:40px;line-height:1.25;font-family:sans-serif;letter-spacing:0px;word-spacing:0px;fill:#000000;fill-opacity:1;stroke:none;stroke-width:0.75"
     xml:space="preserve"><tspan
       style="stroke-width:0.75"
       y="436.87915"
       x="486.07043"
       id="tspan128">a</tspan></text>
  <text
     id="text134"
     y="438.94995"
     x="583.43024"
     style="font-style:normal;font-weight:normal;font-size:40px;line-height:1.25;font-family:sans-serif;letter-spacing:0px;word-spacing:0px;fill:#000000;fill-opacity:1;stroke:none;stroke-width:0.75"
     xml:space="preserve"><tspan
       style="stroke-width:0.75"
       y="438.94995"
       x="583.43024"
       id="tspan132">b</tspan></text>
  <text
     id="text138"
     y="437.86292"
     x="676.49658"
     style="font-style:normal;font-weight:normal;font-size:40px;line-height:1.25;font-family:sans-serif;letter-spacing:0px;word-spacing:0px;fill:#000000;fill-opacity:1;stroke:none;stroke-width:0.75"
     xml:space="preserve"><tspan
       style="stroke-width:0.75"
       y="437.86292"
       x="676.49658"
       id="tspan136">c</tspan></text>
  <text
     id="text142"
     y="438.58563"
     x="767.492"
     style="font-style:normal;font-weight:normal;font-size:40px;line-height:1.25;font-family:sans-serif;letter-spacing:0px;word-spacing:0px;fill:#000000;fill-opacity:1;stroke:none;stroke-width:0.75"
     xml:space="preserve"><tspan
       style="stroke-width:0.75"
       y="438.58563"
       x="767.492"
       id="tspan140">d</tspan></text>
  <text
     id="text146"
     y="436.5694"
     x="859.16156"
     style="font-style:normal;font-weight:normal;font-size:40px;line-height:1.25;font-family:sans-serif;letter-spacing:0px;word-spacing:0px;fill:#000000;fill-opacity:1;stroke:none;stroke-width:0.75"
     xml:space="preserve"><tspan
       style="stroke-width:0.75"
       y="436.5694"
       x="859.16156"
       id="tspan144">e</tspan></text>
  <text
     id="text150"
     y="438.43372"
     x="958.22784"
     style="font-style:normal;font-weight:normal;font-size:40px;line-height:1.25;font-family:sans-serif;letter-spacing:0px;word-spacing:0px;fill:#000000;fill-opacity:1;stroke:none;stroke-width:0.75"
     xml:space="preserve"><tspan
       style="stroke-width:0.75"
       y="438.43372"
       x="958.22784"
       id="tspan148">f</tspan></text>
  <text
     id="text154"
     y="438.43372"
     x="1040.0656"
     style="font-style:normal;font-weight:normal;font-size:40px;line-height:1.25;font-family:sans-serif;letter-spacing:0px;word-spacing:0px;fill:#000000;fill-opacity:1;stroke:none;stroke-width:0.75"
     xml:space="preserve"><tspan
       style="stroke-width:0.75"
       y="438.43372"
       x="1040.0656"
       id="tspan152">g</tspan></text>
  <text
     id="text158"
     y="436.41748"
     x="1133.2351"
     style="font-style:normal;font-weight:normal;font-size:40px;line-height:1.25;font-family:sans-serif;letter-spacing:0px;word-spacing:0px;fill:#000000;fill-opacity:1;stroke:none;stroke-width:0.75"
     xml:space="preserve"><tspan
       style="stroke-width:0.75"
       y="436.41748"
       x="1133.2351"
       id="tspan156">a</tspan></text>
  <text
     id="text162"
     y="436.93372"
     x="1221.2794"
     style="font-style:normal;font-weight:normal;font-size:40px;line-height:1.25;font-family:sans-serif;letter-spacing:0px;word-spacing:0px;fill:#000000;fill-opacity:1;stroke:none;stroke-width:0.75"
     xml:space="preserve"><tspan
       style="stroke-width:0.75"
       y="436.93372"
       x="1221.2794"
       id="tspan160">b</tspan></text>
  <text
     id="text166"
     y="96.332176"
     x="67.82148"
     style="font-style:normal;font-weight:normal;font-size:40px;line-height:1.25;font-family:sans-serif;letter-spacing:0px;word-spacing:0px;fill:#000000;fill-opacity:1;stroke:none;stroke-width:0.75"
     xml:space="preserve"><tspan
       style="stroke-width:0.75"
       y="96.332176"
       x="67.82148"
       id="tspan164">c#</tspan></text>
  <text
     id="text170"
     y="96.745163"
     x="159.22997"
     style="font-style:normal;font-weight:normal;font-size:40px;line-height:1.25;font-family:sans-serif;letter-spacing:0px;word-spacing:0px;fill:#000000;fill-opacity:1;stroke:none;stroke-width:0.75"
     xml:space="preserve"><tspan
       style="stroke-width:0.75"
       y="96.745163"
       x="159.22997"
       id="tspan168">d#</tspan></text>
  <text
     id="text174"
     y="95.348419"
     x="345.56906"
     style="font-style:normal;font-weight:normal;font-size:40px;line-height:1.25;font-family:sans-serif;letter-spacing:0px;word-spacing:0px;fill:#000000;fill-opacity:1;stroke:none;stroke-width:0.75"
     xml:space="preserve"><tspan
       style="stroke-width:0.75"
       y="95.348419"
       x="345.56906"
       id="tspan172">f#</tspan></text>
  <text
     id="text178"
     y="97.315964"
     x="428.59702"
     style="font-style:normal;font-weight:normal;font-size:40px;line-height:1.25;font-family:sans-serif;letter-spacing:0px;word-spacing:0px;fill:#000000;fill-opacity:1;stroke:none;stroke-width:0.75"
     xml:space="preserve"><tspan
       style="stroke-width:0.75"
       y="97.315964"
       x="428.59702"
       id="tspan176">g#</tspan></text>
  <text
     id="text182"
     y="95.196487"
     x="530.35358"
     style="font-style:normal;font-weight:normal;font-size:40px;line-height:1.25;font-family:sans-serif;letter-spacing:0px;word-spacing:0px;fill:#000000;fill-opacity:1;stroke:none;stroke-width:0.75"
     xml:space="preserve"><tspan
       style="stroke-width:0.75"
       y="95.196487"
       x="530.35358"
       id="tspan180">a#</tspan></text>
  <text
     id="text186"
     y="94.522461"
     x="704.06738"
     style="font-style:normal;font-weight:normal;font-size:40px;line-height:1.25;font-family:sans-serif;letter-spacing:0px;word-spacing:0px;fill:#000000;fill-opacity:1;stroke:none;stroke-width:0.75"
     xml:space="preserve"><tspan
       style="stroke-width:0.75"
       y="94.522461"
       x="704.06738"
       id="tspan184">c#</tspan></text>
  <text
     id="text190"
     y="94.522461"
     x="797.75311"
     style="font-style:normal;font-weight:normal;font-size:40px;line-height:1.25;font-family:sans-serif;letter-spacing:0px;word-spacing:0px;fill:#000000;fill-opacity:1;stroke:none;stroke-width:0.75"
     xml:space="preserve"><tspan
       style="stroke-width:0.75"
       y="94.522461"
       x="797.75311"
       id="tspan188">d#</tspan></text>
  <text
     id="text194"
     y="95.609467"
     x="984.19543"
     style="font-style:normal;font-weight:normal;font-size:40px;line-height:1.25;font-family:sans-serif;letter-spacing:0px;word-spacing:0px;fill:#000000;fill-opacity:1;stroke:none;stroke-width:0.75"
     xml:space="preserve"><tspan
       style="stroke-width:0.75"
       y="95.609467"
       x="984.19543"
       id="tspan192">f#</tspan></text>
  <text
     id="text198"
     y="96.125687"
     x="1068.7234"
     style="font-style:normal;font-weight:normal;font-size:40px;line-height:1.25;font-family:sans-serif;letter-spacing:0px;word-spacing:0px;fill:#000000;fill-opacity:1;stroke:none;stroke-width:0.75"
     xml:space="preserve"><tspan
       style="stroke-width:0.75"
       y="96.125687"
       x="1068.7234"
       id="tspan196">g#</tspan></text>
  <text
     id="text202"
     y="94.728943"
     x="1160.2897"
     style="font-style:normal;font-weight:normal;font-size:40px;line-height:1.25;font-family:sans-serif;letter-spacing:0px;word-spacing:0px;fill:#000000;fill-opacity:1;stroke:none;stroke-width:0.75"
     xml:space="preserve"><tspan
       style="stroke-width:0.75"
       y="94.728943"
       x="1160.2897"
       id="tspan200">a#</tspan></text>
  <text
     id="text227"
     y="45.587349"
     x="72.940956"
     style="font-style:normal;font-weight:normal;font-size:40px;line-height:1.25;font-family:sans-serif;letter-spacing:0px;word-spacing:0px;fill:#000000;fill-opacity:1;stroke:none;stroke-width:0.75"
     xml:space="preserve"><tspan
       style="stroke-width:0.75"
       y="45.587349"
       x="72.940956"
       id="tspan225">db</tspan></text>
  <text
     id="text231"
     y="45.223061"
     x="162.02348"
     style="font-style:normal;font-weight:normal;font-size:40px;line-height:1.25;font-family:sans-serif;letter-spacing:0px;word-spacing:0px;fill:#000000;fill-opacity:1;stroke:none;stroke-width:0.75"
     xml:space="preserve"><tspan
       style="stroke-width:0.75"
       y="45.223061"
       x="162.02348"
       id="tspan229">eb</tspan></text>
  <text
     id="text235"
     y="47.342529"
     x="344.79181"
     style="font-style:normal;font-weight:normal;font-size:40px;line-height:1.25;font-family:sans-serif;letter-spacing:0px;word-spacing:0px;fill:#000000;fill-opacity:1;stroke:none;stroke-width:0.75"
     xml:space="preserve"><tspan
       style="stroke-width:0.75"
       y="47.342529"
       x="344.79181"
       id="tspan233">gb</tspan></text>
  <text
     id="text239"
     y="44.755516"
     x="431.28732"
     style="font-style:normal;font-weight:normal;font-size:40px;line-height:1.25;font-family:sans-serif;letter-spacing:0px;word-spacing:0px;fill:#000000;fill-opacity:1;stroke:none;stroke-width:0.75"
     xml:space="preserve"><tspan
       style="stroke-width:0.75"
       y="44.755516"
       x="431.28732"
       id="tspan237">ab</tspan></text>
  <text
     id="text243"
     y="45.168495"
     x="528.28284"
     style="font-style:normal;font-weight:normal;font-size:40px;line-height:1.25;font-family:sans-serif;letter-spacing:0px;word-spacing:0px;fill:#000000;fill-opacity:1;stroke:none;stroke-width:0.75"
     xml:space="preserve"><tspan
       style="stroke-width:0.75"
       y="45.168495"
       x="528.28284"
       id="tspan241">bb</tspan></text>
  <text
     id="text247"
     y="45.945778"
     x="704.17059"
     style="font-style:normal;font-weight:normal;font-size:40px;line-height:1.25;font-family:sans-serif;letter-spacing:0px;word-spacing:0px;fill:#000000;fill-opacity:1;stroke:none;stroke-width:0.75"
     xml:space="preserve"><tspan
       style="stroke-width:0.75"
       y="45.945778"
       x="704.17059"
       id="tspan245">db</tspan></text>
  <text
     id="text251"
     y="44.652267"
     x="798.94336"
     style="font-style:normal;font-weight:normal;font-size:40px;line-height:1.25;font-family:sans-serif;letter-spacing:0px;word-spacing:0px;fill:#000000;fill-opacity:1;stroke:none;stroke-width:0.75"
     xml:space="preserve"><tspan
       style="stroke-width:0.75"
       y="44.652267"
       x="798.94336"
       id="tspan249">eb</tspan></text>
  <text
     id="text255"
     y="47.755516"
     x="982.33118"
     style="font-style:normal;font-weight:normal;font-size:40px;line-height:1.25;font-family:sans-serif;letter-spacing:0px;word-spacing:0px;fill:#000000;fill-opacity:1;stroke:none;stroke-width:0.75"
     xml:space="preserve"><tspan
       style="stroke-width:0.75"
       y="47.755516"
       x="982.33118"
       id="tspan253">gb</tspan></text>
  <text
     id="text259"
     y="44.549026"
     x="1071.3104"
     style="font-style:normal;font-weight:normal;font-size:40px;line-height:1.25;font-family:sans-serif;letter-spacing:0px;word-spacing:0px;fill:#000000;fill-opacity:1;stroke:none;stroke-width:0.75"
     xml:space="preserve"><tspan
       style="stroke-width:0.75"
       y="44.549026"
       x="1071.3104"
       id="tspan257">ab</tspan></text>
  <text
     id="text263"
     y="45.842529"
     x="1159.3059"
     style="font-style:normal;font-weight:normal;font-size:40px;line-height:1.25;font-family:sans-serif;letter-spacing:0px;word-spacing:0px;fill:#000000;fill-opacity:1;stroke:none;stroke-width:0.75"
     xml:space="preserve"><tspan
       style="stroke-width:0.75"
       y="45.842529"
       x="1159.3059"
       id="tspan261">bb</tspan></text>
</svg>
